HIERARCHY
ROOT newVegas:Hips
{
	OFFSET 0.000000 96.479958 0.000000
	CHANNELS 6 Xposition Yposition Zposition Xrotation Yrotation Zrotation
	JOINT newVegas:Pelvis
	{
		OFFSET 0.000000 0.000000 0.000000
		CHANNELS 3 Xrotation Yrotation Zrotation
		JOINT newVegas:LeftUpLeg
		{
			OFFSET 18.735201 -5.666702 -4.541200
			CHANNELS 3 Xrotation Yrotation Zrotation
			JOINT newVegas:LeftLeg
			{
				OFFSET -0.021200 -31.938179 0.493100
				CHANNELS 3 Xrotation Yrotation Zrotation
				JOINT newVegas:LeftFoot
				{
					OFFSET 0.021200 -31.938179 -4.336299
					CHANNELS 3 Xrotation Yrotation Zrotation
					JOINT newVegas:LeftToeBase
					{
						OFFSET 0.943001 -26.722000 15.023500
						CHANNELS 3 Xrotation Yrotation Zrotation
						End Site
						{
							OFFSET 0.000000 30.670183 0.000000
						}
					}
				}
				JOINT newVegas:Left_PantLeg
				{
					OFFSET 0.663870 -9.044666 -1.108900
					CHANNELS 3 Xrotation Yrotation Zrotation
					End Site
					{
						OFFSET 1.415995 20.635357 0.000000
					}
				}
			}
		}
		JOINT newVegas:RightUpLeg
		{
			OFFSET -18.735201 -5.666702 -4.541200
			CHANNELS 3 Xrotation Yrotation Zrotation
			JOINT newVegas:RightLeg
			{
				OFFSET 0.018946 -31.938133 0.493100
				CHANNELS 3 Xrotation Yrotation Zrotation
				JOINT newVegas:RightFoot
				{
					OFFSET -0.018946 -31.938126 -4.336299
					CHANNELS 3 Xrotation Yrotation Zrotation
					JOINT newVegas:RightToeBase
					{
						OFFSET -0.943001 -26.722004 15.023500
						CHANNELS 3 Xrotation Yrotation Zrotation
						End Site
						{
							OFFSET 0.000000 30.670187 0.000000
						}
					}
				}
				JOINT newVegas:Right_PantLeg
				{
					OFFSET -0.661674 -9.044716 -1.108900
					CHANNELS 3 Xrotation Yrotation Zrotation
					End Site
					{
						OFFSET -1.415958 20.635269 0.000000
					}
				}
			}
		}
	}
	JOINT newVegas:Spine
	{
		OFFSET 0.000000 10.199997 -0.299500
		CHANNELS 3 Xrotation Yrotation Zrotation
		JOINT newVegas:Spine1
		{
			OFFSET 0.000000 11.900002 -1.516600
			CHANNELS 3 Xrotation Yrotation Zrotation
			JOINT newVegas:Spine2
			{
				OFFSET 0.000000 13.600006 -2.842500
				CHANNELS 3 Xrotation Yrotation Zrotation
				JOINT newVegas:Neck
				{
					OFFSET 0.000000 9.624100 -2.890100
					CHANNELS 3 Xrotation Yrotation Zrotation
					JOINT newVegas:Head
					{
						OFFSET 0.000000 14.068802 -1.351900
						CHANNELS 3 Xrotation Yrotation Zrotation
						JOINT newVegas:Hair_Back
						{
							OFFSET 0.000000 3.231903 -17.524799
							CHANNELS 3 Xrotation Yrotation Zrotation
							End Site
							{
								OFFSET 0.000000 19.849884 0.000000
							}
						}
						JOINT newVegas:Hair_Front
						{
							OFFSET 0.000000 31.260406 4.573800
							CHANNELS 3 Xrotation Yrotation Zrotation
							JOINT newVegas:Hair_Front1
							{
								OFFSET 0.000000 2.284103 11.993300
								CHANNELS 3 Xrotation Yrotation Zrotation
								JOINT newVegas:Hair_Front2
								{
									OFFSET 0.000000 2.284103 11.993300
									CHANNELS 3 Xrotation Yrotation Zrotation
									End Site
									{
										OFFSET 0.000000 12.208862 0.000000
									}
								}
							}
						}
						JOINT newVegas:Jowel
						{
							OFFSET 0.000000 -7.458206 6.864100
							CHANNELS 3 Xrotation Yrotation Zrotation
							End Site
							{
								OFFSET 0.000000 19.849884 0.000000
							}
						}
					}
				}
				JOINT newVegas:LeftShoulder
				{
					OFFSET 15.263000 10.923401 -0.547700
					CHANNELS 3 Xrotation Yrotation Zrotation
					JOINT newVegas:LeftArm
					{
						OFFSET 25.438599 -2.830597 -13.032500
						CHANNELS 3 Xrotation Yrotation Zrotation
						JOINT newVegas:LeftForeArm
						{
							OFFSET 29.960503 0.000000 0.000000
							CHANNELS 3 Xrotation Yrotation Zrotation
							JOINT newVegas:LeftHand
							{
								OFFSET 27.849251 0.000000 0.000000
								CHANNELS 3 Xrotation Yrotation Zrotation
								JOINT newVegas:LeftHandThumb1
								{
									OFFSET 4.487587 -3.305161 6.305391
									CHANNELS 3 Xrotation Yrotation Zrotation
									JOINT newVegas:LeftHandThumb2
									{
										OFFSET 5.480453 -3.164139 3.164143
										CHANNELS 3 Xrotation Yrotation Zrotation
										JOINT newVegas:LeftHandThumb3
										{
											OFFSET 5.159721 -2.978973 2.978967
											CHANNELS 3 Xrotation Yrotation Zrotation
											End Site
											{
												OFFSET 2.494507 5.926697 1.738678
											}
										}
									}
								}
								JOINT newVegas:LeftHandIndex1
								{
									OFFSET 18.578728 -0.527832 5.208049
									CHANNELS 3 Xrotation Yrotation Zrotation
									JOINT newVegas:LeftHandIndex2
									{
										OFFSET 3.192009 0.000000 0.000000
										CHANNELS 3 Xrotation Yrotation Zrotation
										JOINT newVegas:LeftHandIndex3
										{
											OFFSET 3.835129 0.000000 0.000000
											CHANNELS 3 Xrotation Yrotation Zrotation
											End Site
											{
												OFFSET -0.034599 3.816971 0.371180
											}
										}
									}
								}
								JOINT newVegas:LeftHandMiddle1
								{
									OFFSET 18.476105 0.000000 0.000000
									CHANNELS 3 Xrotation Yrotation Zrotation
									JOINT newVegas:LeftHandMiddle2
									{
										OFFSET 3.324875 0.000000 0.000000
										CHANNELS 3 Xrotation Yrotation Zrotation
										JOINT newVegas:LeftHandMiddle3
										{
											OFFSET 4.596550 0.000000 0.000000
											CHANNELS 3 Xrotation Yrotation Zrotation
											End Site
											{
												OFFSET 0.057701 4.578827 0.399218
											}
										}
									}
								}
								JOINT newVegas:LeftHandRing1
								{
									OFFSET 17.732719 0.121887 -4.201567
									CHANNELS 3 Xrotation Yrotation Zrotation
									JOINT newVegas:LeftHandRing2
									{
										OFFSET 2.733170 0.000000 0.000000
										CHANNELS 3 Xrotation Yrotation Zrotation
										JOINT newVegas:LeftHandRing3
										{
											OFFSET 3.178268 0.000000 0.000000
											CHANNELS 3 Xrotation Yrotation Zrotation
											End Site
											{
												OFFSET 0.119102 3.170624 0.185394
											}
										}
									}
								}
								JOINT newVegas:LeftHandPinky1
								{
									OFFSET 15.989624 -0.606689 -7.535461
									CHANNELS 3 Xrotation Yrotation Zrotation
									JOINT newVegas:LeftHandPinky2
									{
										OFFSET 2.538986 0.000000 0.000000
										CHANNELS 3 Xrotation Yrotation Zrotation
										JOINT newVegas:LeftHandPinky3
										{
											OFFSET 2.593102 0.000000 0.000000
											CHANNELS 3 Xrotation Yrotation Zrotation
											End Site
											{
												OFFSET -0.150902 2.584198 0.152708
											}
										}
									}
								}
							}
							JOINT newVegas:Left_Sleeve
							{
								OFFSET 0.267448 -0.649796 0.577675
								CHANNELS 3 Xrotation Yrotation Zrotation
								End Site
								{
									OFFSET 0.000000 15.991241 0.000000
								}
							}
							JOINT newVegas:Left_CapeC
							{
								OFFSET 15.715958 -8.608795 -6.935905
								CHANNELS 3 Xrotation Yrotation Zrotation
								JOINT newVegas:Left_CapeC1
								{
									OFFSET 0.000000 -8.688499 0.000000
									CHANNELS 3 Xrotation Yrotation Zrotation
									End Site
									{
										OFFSET 0.000000 8.688499 0.000000
									}
								}
							}
						}
						JOINT newVegas:Left_CapeB
						{
							OFFSET 26.118385 -8.608795 -7.079235
							CHANNELS 3 Xrotation Yrotation Zrotation
							JOINT newVegas:Left_CapeB1
							{
								OFFSET 0.000000 -8.688499 0.000000
								CHANNELS 3 Xrotation Yrotation Zrotation
								End Site
								{
									OFFSET 0.000000 8.688499 0.000000
								}
							}
						}
						JOINT newVegas:Left_CapeA
						{
							OFFSET 5.115639 -8.608795 -10.395809
							CHANNELS 3 Xrotation Yrotation Zrotation
							JOINT newVegas:Left_CapeA1
							{
								OFFSET 0.000000 -8.688499 0.000000
								CHANNELS 3 Xrotation Yrotation Zrotation
								End Site
								{
									OFFSET 0.000000 8.688499 0.000000
								}
							}
						}
					}
				}
				JOINT newVegas:RightShoulder
				{
					OFFSET -15.263000 10.923401 -0.547700
					CHANNELS 3 Xrotation Yrotation Zrotation
					JOINT newVegas:RightArm
					{
						OFFSET -25.438599 -2.830597 -13.032500
						CHANNELS 3 Xrotation Yrotation Zrotation
						JOINT newVegas:RightForeArm
						{
							OFFSET -29.960503 0.000000 0.000000
							CHANNELS 3 Xrotation Yrotation Zrotation
							JOINT newVegas:RightHand
							{
								OFFSET -27.849251 0.000000 0.000000
								CHANNELS 3 Xrotation Yrotation Zrotation
								JOINT newVegas:RightHandThumb1
								{
									OFFSET -4.487587 -3.305161 6.305391
									CHANNELS 3 Xrotation Yrotation Zrotation
									JOINT newVegas:RightHandThumb2
									{
										OFFSET -5.480453 -3.164139 3.164143
										CHANNELS 3 Xrotation Yrotation Zrotation
										JOINT newVegas:RightHandThumb3
										{
											OFFSET -5.159721 -2.978973 2.978967
											CHANNELS 3 Xrotation Yrotation Zrotation
											End Site
											{
												OFFSET -2.494507 5.926697 1.738678
											}
										}
									}
								}
								JOINT newVegas:RightHandIndex1
								{
									OFFSET -18.578728 -0.527832 5.208049
									CHANNELS 3 Xrotation Yrotation Zrotation
									JOINT newVegas:RightHandIndex2
									{
										OFFSET -3.192009 0.000000 0.000000
										CHANNELS 3 Xrotation Yrotation Zrotation
										JOINT newVegas:RightHandIndex3
										{
											OFFSET -3.835129 0.000000 0.000000
											CHANNELS 3 Xrotation Yrotation Zrotation
											End Site
											{
												OFFSET 0.034599 3.816971 0.371180
											}
										}
									}
								}
								JOINT newVegas:RightHandMiddle1
								{
									OFFSET -18.476105 0.000000 0.000000
									CHANNELS 3 Xrotation Yrotation Zrotation
									JOINT newVegas:RightHandMiddle2
									{
										OFFSET -3.324875 0.000000 0.000000
										CHANNELS 3 Xrotation Yrotation Zrotation
										JOINT newVegas:RightHandMiddle3
										{
											OFFSET -4.596550 0.000000 0.000000
											CHANNELS 3 Xrotation Yrotation Zrotation
											End Site
											{
												OFFSET -0.057701 4.578827 0.399218
											}
										}
									}
								}
								JOINT newVegas:RightHandRing1
								{
									OFFSET -17.732719 0.121887 -4.201567
									CHANNELS 3 Xrotation Yrotation Zrotation
									JOINT newVegas:RightHandRing2
									{
										OFFSET -2.733170 0.000000 0.000000
										CHANNELS 3 Xrotation Yrotation Zrotation
										JOINT newVegas:RightHandRing3
										{
											OFFSET -3.178268 0.000000 0.000000
											CHANNELS 3 Xrotation Yrotation Zrotation
											End Site
											{
												OFFSET -0.119102 3.170624 0.185394
											}
										}
									}
								}
								JOINT newVegas:RightHandPinky1
								{
									OFFSET -15.989624 -0.606689 -7.535461
									CHANNELS 3 Xrotation Yrotation Zrotation
									JOINT newVegas:RightHandPinky2
									{
										OFFSET -2.538986 0.000000 0.000000
										CHANNELS 3 Xrotation Yrotation Zrotation
										JOINT newVegas:RightHandPinky3
										{
											OFFSET -2.593102 0.000000 0.000000
											CHANNELS 3 Xrotation Yrotation Zrotation
											End Site
											{
												OFFSET 0.150902 2.584198 0.152708
											}
										}
									}
								}
							}
							JOINT newVegas:Right_CapeC
							{
								OFFSET -15.715958 -8.608795 -6.935905
								CHANNELS 3 Xrotation Yrotation Zrotation
								JOINT newVegas:Right_CapeC1
								{
									OFFSET 0.000000 -8.688499 0.000000
									CHANNELS 3 Xrotation Yrotation Zrotation
									End Site
									{
										OFFSET 0.000000 8.688499 0.000000
									}
								}
							}
							JOINT newVegas:Right_Sleeve
							{
								OFFSET -0.267448 -0.649994 0.577675
								CHANNELS 3 Xrotation Yrotation Zrotation
								End Site
								{
									OFFSET 0.000000 15.991302 0.000000
								}
							}
						}
						JOINT newVegas:Right_CapeA
						{
							OFFSET -5.115540 -8.608795 -10.395824
							CHANNELS 3 Xrotation Yrotation Zrotation
							JOINT newVegas:Right_CapeA1
							{
								OFFSET 0.000000 -8.688499 0.000000
								CHANNELS 3 Xrotation Yrotation Zrotation
								End Site
								{
									OFFSET 0.000000 8.688499 0.000000
								}
							}
						}
						JOINT newVegas:Right_CapeB
						{
							OFFSET -26.118187 -8.608795 -7.079266
							CHANNELS 3 Xrotation Yrotation Zrotation
							JOINT newVegas:Right_CapeB1
							{
								OFFSET 0.000000 -8.688499 0.000000
								CHANNELS 3 Xrotation Yrotation Zrotation
								End Site
								{
									OFFSET 0.000000 8.688499 0.000000
								}
							}
						}
					}
				}
				JOINT newVegas:Left_Collar
				{
					OFFSET 18.625099 8.655502 8.828100
					CHANNELS 3 Xrotation Yrotation Zrotation
					JOINT newVegas:Left_Collar1
					{
						OFFSET 14.783401 10.540405 -1.259500
						CHANNELS 3 Xrotation Yrotation Zrotation
						End Site
						{
							OFFSET 0.000000 18.199875 0.000000
						}
					}
				}
				JOINT newVegas:Collar_Back
				{
					OFFSET 0.000000 15.630707 -20.132601
					CHANNELS 3 Xrotation Yrotation Zrotation
					End Site
					{
						OFFSET 0.000000 22.523010 0.000000
					}
				}
				JOINT newVegas:Left_Peck
				{
					OFFSET 17.239599 -5.132599 25.482599
					CHANNELS 3 Xrotation Yrotation Zrotation
					End Site
					{
						OFFSET 0.000000 22.523010 0.000000
					}
				}
				JOINT newVegas:Right_Peck
				{
					OFFSET -17.239599 -5.132202 25.482599
					CHANNELS 3 Xrotation Yrotation Zrotation
					End Site
					{
						OFFSET 0.000000 22.523010 0.000000
					}
				}
				JOINT newVegas:Right_Collar
				{
					OFFSET -18.625099 8.655792 8.828100
					CHANNELS 3 Xrotation Yrotation Zrotation
					JOINT newVegas:Right_Collar1
					{
						OFFSET -14.783401 10.539993 -1.259500
						CHANNELS 3 Xrotation Yrotation Zrotation
						End Site
						{
							OFFSET 0.000000 18.199631 0.000000
						}
					}
				}
			}
		}
		JOINT newVegas:Belly
		{
			OFFSET 0.000000 -6.540398 9.014299
			CHANNELS 3 Xrotation Yrotation Zrotation
			End Site
			{
				OFFSET 0.000000 11.566666 0.000000
			}
		}
	}
	JOINT newVegas:ElvisFacialAnim_Joint
	{
		OFFSET 1.000000 -95.330101 -8.825800
		CHANNELS 3 Xrotation Yrotation Zrotation
		End Site
		{
			OFFSET 0.000000 35.315800 0.000000
		}
	}
}
MOTION
Frames: 4
Frame Time: 0.016667
-1.935887 91.023453 3.571989 1.362926 -27.043743 0.872824 -0.000000 -0.000001 -0.000000 -29.803476 24.642322 16.530724 31.951608 8.275652 11.558377 -5.107052 1.808363 -15.915995 0.000000 0.000001 0.000000 -0.000001 0.000000 -0.000000 -19.813235 -16.358115 -11.708635 35.211295 -0.577844 -7.629116 -17.003604 -2.982137 13.219344 0.000000 0.000000 -0.000000 0.000003 0.000003 0.000000 3.670118 -2.011558 0.976424 1.363085 -0.820709 0.173836 1.366614 -0.813814 0.178821 -0.724024 1.835180 0.961151 -0.724022 1.835174 0.961153 0.000000 0.000001 0.000000 -0.723949 1.835179 0.961149 -0.724099 1.835178 0.961153 0.000000 -0.000001 -0.000000 0.000000 0.000001 -0.000000 -0.311620 3.473792 4.919199 -51.541793 -1.692559 -52.291894 -0.000119 -84.594488 -0.000148 -12.268101 -17.441592 -7.415577 27.590962 19.106271 -21.055330 27.859541 42.153049 14.703688 0.000002 -0.000002 -0.000003 6.438757 6.867039 -86.304624 7.312866 6.867698 -93.605297 0.000001 -0.000001 0.000003 6.436808 6.866889 -86.288416 7.314796 6.867568 -93.621505 0.000002 -0.000001 0.000002 6.438739 6.867002 -86.304617 7.312862 6.867695 -93.605284 -0.000001 0.000001 -0.000002 10.514975 7.128951 -86.291039 7.312011 2.781412 -93.595298 0.000002 -0.000005 -0.000002 0.000002 0.000000 0.000005 0.000002 0.000000 0.000005 0.000002 0.000000 0.000005 0.000001 0.000000 -0.000002 0.000001 -0.000001 -0.000002 0.000001 0.000000 -0.000002 0.000001 -0.000001 -0.000003 -1.129699 -10.661991 8.143388 -61.066966 65.570431 77.632572 -0.000299 81.745876 0.000278 -15.442848 16.436761 -32.999632 35.509597 -4.573178 10.809929 66.380799 -29.908026 29.548747 0.000001 0.000001 0.000001 5.945870 -6.875911 81.685340 8.620186 -6.745016 103.956572 -0.000001 -0.000001 -0.000001 5.945858 -6.875893 81.685347 8.620171 -6.745016 103.956558 -0.000002 -0.000001 -0.000002 5.945860 -6.875867 81.685347 8.620173 -6.745010 103.956565 0.000002 -0.000001 -0.000003 5.945877 -6.875928 81.685361 8.620150 -6.745015 103.956572 -0.000003 0.000003 -0.000002 -0.000001 0.000001 -0.000002 0.000000 -0.000002 -0.000002 -0.000001 0.000001 -0.000001 0.000001 -0.000004 -0.000001 0.000001 -0.000003 -0.000003 0.000001 -0.000004 -0.000001 0.000001 -0.000003 -0.000002 -0.000000 -0.000001 0.000000 -0.000000 -0.000001 0.000000 -0.000000 -0.000001 0.000000 -0.000000 -0.000001 0.000000 -0.000000 -0.000001 0.000000 -0.000000 -0.000001 0.000000 -0.000000 -0.000001 0.000000 -0.000001 0.000001 0.000000 -0.000000 -0.000001 -0.000000 
-1.934488 91.024429 3.569349 1.363294 -27.038209 0.867202 -0.000000 0.000001 0.000000 -29.830035 24.678221 16.553667 31.960593 8.229620 11.561653 -5.109326 1.807837 -15.902326 0.000000 -0.000000 -0.000000 -0.000001 -0.000001 0.000000 -19.802501 -16.356995 -11.690726 35.195521 -0.600174 -7.639958 -16.994672 -2.982843 13.228937 -0.000000 -0.000000 -0.000000 -0.000002 -0.000001 -0.000002 3.665269 -2.011574 0.976045 1.363088 -0.820714 0.173819 1.366617 -0.813808 0.178805 -0.720997 1.835240 0.969417 -0.720999 1.835240 0.969415 -0.000000 -0.000002 -0.000000 -0.721067 1.835252 0.969417 -0.720852 1.835234 0.969416 -0.000000 0.000001 0.000000 -0.000000 -0.000002 -0.000000 -0.308282 3.435131 4.918955 -51.567529 -1.700401 -52.299342 0.000395 -84.588423 0.000390 -12.294695 -17.380823 -7.430972 27.590964 19.106271 -21.055318 27.859544 42.153049 14.703695 0.000002 -0.000001 -0.000004 6.438756 6.867040 -86.304624 7.312866 6.867697 -93.605297 0.000002 -0.000002 0.000002 6.436810 6.866889 -86.288416 7.314791 6.867568 -93.621512 0.000000 -0.000001 -0.000001 6.438737 6.867005 -86.304611 7.312857 6.867695 -93.605284 -0.000001 0.000003 0.000002 10.514977 7.128954 -86.291032 7.312010 2.781407 -93.595298 -0.000000 -0.000002 -0.000000 0.000003 -0.000001 0.000001 0.000003 -0.000001 0.000001 0.000002 -0.000001 0.000002 -0.000001 0.000000 0.000001 -0.000001 -0.000001 -0.000002 -0.000001 0.000000 0.000001 -0.000001 -0.000002 -0.000000 -1.127376 -10.685150 8.203406 -61.032665 65.576865 77.592575 0.000149 81.763293 -0.000158 -15.337702 16.323440 -32.921730 35.509593 -4.573177 10.809926 66.380805 -29.908026 29.548747 0.000001 0.000004 0.000002 5.945871 -6.875912 81.685340 8.620185 -6.745013 103.956572 0.000002 0.000002 0.000002 5.945855 -6.875886 81.685347 8.620171 -6.745005 103.956558 -0.000001 -0.000000 -0.000000 5.945861 -6.875868 81.685347 8.620173 -6.745006 103.956565 0.000002 -0.000001 0.000000 5.945870 -6.875925 81.685354 8.620145 -6.745014 103.956572 -0.000002 -0.000000 -0.000002 -0.000004 0.000002 0.000001 -0.000003 -0.000001 0.000001 -0.000004 0.000001 0.000001 0.000000 0.000003 -0.000000 0.000000 0.000003 0.000000 0.000000 0.000003 -0.000000 0.000000 0.000003 0.000001 -0.000000 -0.000001 0.000000 -0.000000 -0.000001 0.000000 -0.000000 -0.000001 0.000000 -0.000000 -0.000001 0.000000 -0.000000 -0.000001 0.000000 -0.000000 -0.000001 0.000000 -0.000000 -0.000001 0.000000 -0.000000 -0.000000 -0.000000 -0.000000 0.000001 0.000000 
-1.934994 91.025299 3.567915 1.363661 -27.031917 0.861460 0.000000 0.000001 -0.000000 -29.851137 24.703425 16.573667 31.967765 8.193780 11.563550 -5.110690 1.807432 -15.892720 -0.000000 -0.000000 0.000000 -0.000001 0.000002 0.000003 -19.788670 -16.351080 -11.675250 35.180962 -0.626491 -7.640767 -16.988702 -2.983191 13.234880 0.000000 0.000000 0.000000 0.000000 0.000003 -0.000001 3.658652 -2.011663 0.975763 1.361889 -0.820751 0.173847 1.365417 -0.813856 0.178833 -0.717352 1.833137 0.974590 -0.717350 1.833138 0.974589 0.000000 -0.000002 0.000000 -0.717351 1.833128 0.974592 -0.717280 1.833162 0.974586 -0.000000 -0.000002 -0.000000 0.000000 -0.000002 0.000000 -0.307942 3.431330 4.918804 -51.600829 -1.706251 -52.314820 -0.000413 -84.572400 -0.000355 -12.351119 -17.378783 -7.461649 27.590959 19.106269 -21.055327 27.859541 42.153049 14.703690 0.000000 0.000000 -0.000003 6.438754 6.867041 -86.304617 7.312868 6.867699 -93.605297 0.000001 -0.000000 -0.000001 6.436807 6.866892 -86.288416 7.314794 6.867569 -93.621512 -0.000002 -0.000003 0.000001 6.438738 6.867003 -86.304611 7.312863 6.867696 -93.605284 -0.000000 0.000001 0.000002 10.514976 7.128951 -86.291032 7.312014 2.781413 -93.595298 0.000003 -0.000002 0.000001 0.000000 0.000004 -0.000002 0.000000 0.000004 -0.000002 -0.000001 0.000004 -0.000002 0.000001 -0.000002 0.000001 0.000001 -0.000003 0.000000 0.000001 -0.000002 0.000001 0.000001 -0.000003 -0.000000 -1.125352 -10.703783 8.253318 -60.998056 65.595901 77.553595 -0.000003 81.773197 -0.000063 -15.257917 16.188494 -32.872071 35.509593 -4.573179 10.809928 66.380805 -29.908026 29.548747 0.000002 -0.000003 0.000001 5.945869 -6.875917 81.685340 8.620179 -6.745015 103.956572 0.000002 -0.000002 -0.000002 5.945857 -6.875890 81.685347 8.620166 -6.745015 103.956558 -0.000002 -0.000001 -0.000000 5.945861 -6.875872 81.685347 8.620177 -6.745004 103.956565 -0.000001 -0.000001 -0.000002 5.945871 -6.875928 81.685354 8.620153 -6.745011 103.956565 0.000000 0.000003 -0.000000 0.000001 -0.000001 0.000000 0.000001 -0.000003 -0.000003 0.000001 -0.000001 -0.000000 0.000000 -0.000003 -0.000000 0.000000 -0.000002 -0.000000 0.000000 -0.000003 -0.000000 0.000000 -0.000002 0.000001 -0.000000 0.000002 -0.000000 -0.000000 0.000002 -0.000000 -0.000000 0.000002 -0.000000 -0.000000 0.000002 -0.000000 -0.000000 0.000002 -0.000000 -0.000000 0.000002 -0.000000 -0.000000 0.000002 -0.000000 -0.000000 -0.000000 -0.000000 0.000000 0.000001 -0.000000 
-1.935384 91.026138 3.566150 1.364039 -27.026002 0.854552 -0.000000 -0.000001 -0.000000 -29.879093 24.739555 16.600886 31.978703 8.144725 11.565926 -5.114204 1.807100 -15.879927 -0.000000 0.000000 -0.000000 -0.000000 0.000000 0.000001 -19.773323 -16.337524 -11.659454 35.165820 -0.655650 -7.634889 -16.982157 -2.982372 13.238910 -0.000000 -0.000000 -0.000000 0.000001 -0.000000 0.000001 3.651949 -2.008425 0.975526 1.359631 -0.820065 0.173906 1.363165 -0.813142 0.178891 -0.713602 1.831689 0.979040 -0.713589 1.831687 0.979048 -0.000000 -0.000000 -0.000000 -0.713460 1.831699 0.979034 -0.713749 1.831702 0.979042 -0.000000 0.000000 -0.000000 -0.000000 -0.000000 -0.000000 -0.306418 3.435010 4.888568 -51.635851 -1.710359 -52.332793 -0.000329 -84.553883 -0.000373 -12.412313 -17.397696 -7.494320 27.590957 19.106266 -21.055327 27.859549 42.153045 14.703693 0.000001 -0.000002 0.000002 6.438755 6.867039 -86.304631 7.312868 6.867698 -93.605297 0.000002 0.000001 0.000001 6.436809 6.866890 -86.288416 7.314799 6.867567 -93.621505 -0.000001 0.000001 0.000003 6.438738 6.866998 -86.304617 7.312857 6.867697 -93.605291 0.000000 0.000003 -0.000000 10.514981 7.128947 -86.291039 7.312018 2.781413 -93.595298 -0.000001 -0.000005 0.000001 0.000000 -0.000002 0.000000 0.000000 -0.000002 0.000000 -0.000000 -0.000001 0.000001 0.000002 -0.000002 -0.000002 0.000002 -0.000003 -0.000003 0.000002 -0.000002 -0.000002 0.000002 -0.000003 -0.000003 -1.123387 -10.721038 8.300136 -60.963236 65.619854 77.514376 0.000098 81.780696 -0.000110 -15.193573 16.057432 -32.834478 35.509597 -4.573173 10.809927 66.380805 -29.908022 29.548747 0.000001 -0.000002 0.000003 5.945873 -6.875912 81.685340 8.620186 -6.745014 103.956572 -0.000004 0.000001 0.000001 5.945858 -6.875882 81.685347 8.620167 -6.745011 103.956558 -0.000000 -0.000002 -0.000001 5.945865 -6.875872 81.685347 8.620175 -6.745003 103.956565 0.000001 -0.000003 0.000001 5.945874 -6.875923 81.685354 8.620150 -6.745013 103.956572 -0.000002 -0.000002 -0.000001 0.000001 0.000003 -0.000000 0.000001 0.000002 -0.000003 0.000001 0.000002 0.000001 0.000001 0.000001 -0.000000 0.000001 0.000002 -0.000001 0.000001 0.000001 -0.000000 0.000001 0.000002 -0.000000 -0.000000 -0.000003 0.000000 -0.000000 -0.000003 0.000000 -0.000000 -0.000003 0.000000 -0.000000 -0.000003 0.000000 -0.000000 -0.000003 0.000000 -0.000000 -0.000003 0.000000 -0.000000 -0.000003 0.000000 -0.000000 0.000001 -0.000000 -0.000000 -0.000001 -0.000000 
